<svg width="1361" height="169" viewBox="0 0 1361 169" fill="none" xmlns="http://www.w3.org/2000/svg">
<path d="M-2 167.885C-2 167.885 92.4561 2.02625 163.5 2.02625C234.544 2.02625 254.727 167.885 329 167.885C403.273 167.885 404.08 2.02625 494.5 2.02625C584.92 2.02625 566.351 150.895 660 167.885C753.649 184.876 748.805 -14.9642 825.5 2.02625C902.195 19.0167 903.81 150.895 991 167.885C1078.19 184.876 1076.58 2.02625 1156.5 2.02625C1236.42 2.02625 1235.62 167.885 1322 167.885C1408.38 167.885 1410.8 2.02625 1487.5 2.02625C1564.2 2.02625 1593.26 167.885 1653 167.885C1712.74 167.885 1749.07 2.02625 1818.5 2.02625C1887.93 2.02625 1984 167.885 1984 167.885" stroke="#EFE4BC"/>
</svg>
